PathFileType	4	(X/Y/Z)	./resultDataOpenSim/trcMotMarkerGrf/sub09/qtm-02-04.trc
DataRate	CameraRate	NumFrames	NumMarkers	Units	OrigDataRate	OrigDataStartFrame	OrigNumFrames
250.000000	250.000000	12	24	m	250.000000	1	461
Frame#	Time	L.Toe.Tip			R.Toe.Tip			L.Ankle.Lat			R.Ankle.Lat			L.Ankle.Med			R.Ankle.Med			L.Heel			R.Heel			L.Knee.Lat			R.Knee.Lat			L.Knee.Med			R.Knee.Med			L.Thigh.Upper			R.Thigh.Upper			L.ASIS			R.ASIS			V.Sacral			L.Acromium			R.Acromium			C7			L.Elbow			R.Elbow			L.Wrist.Lat			R.Wrist.Lat
		X1	Y1	Z1	X2	Y2	Z2	X3	Y3	Z3	X4	Y4	Z4	X5	Y5	Z5	X6	Y6	Z6	X7	Y7	Z7	X8	Y8	Z8	X9	Y9	Z9	X10	Y10	Z10	X11	Y11	Z11	X12	Y12	Z12	X13	Y13	Z13	X14	Y14	Z14	X15	Y15	Z15	X16	Y16	Z16	X17	Y17	Z17	X18	Y18	Z18	X19	Y19	Z19	X20	Y20	Z20	X21	Y21	Z21	X22	Y22	Z22	X23	Y23	Z23	X24	Y24	Z24

1	0	-1.5159876	0.036751006	-0.030538384	-0.89619359	0.098271436	0.096217689	-1.6665168	0.083342847	-0.058217977	-1.0457005	0.069305405	0.12414126	-1.6334271	0.099878134	0.032990968	-1.0404066	0.10878047	0.033326693	NaN	NaN	NaN	-1.0946105	0.027518579	0.069558362	-1.5121709	0.47258566	-0.12335367	-1.1405342	0.51959596	0.16452053	-1.506644	0.47349578	0.0031659835	-1.141238	0.49853884	0.037924101	-1.3873374	0.87445697	-0.16784523	-1.3430138	0.86976825	0.20103226	-1.2770923	0.9431038	-0.1184081	-1.2627152	0.95044629	0.12077898	-1.4316984	1.0131221	0.013878834	-1.226578	1.3942773	-0.15591115	-1.2657008	1.4130291	0.16904737	-1.3066751	1.4579649	0.002382221	-1.312563	1.0301427	-0.22322798	-1.4535552	1.1021833	0.26543984	-1.0791515	0.89096491	-0.21726266	-1.3336486	0.86186682	0.31771162
2	0.004	-1.5159305	0.036709725	-0.030592616	-0.87896851	0.10228911	0.096408634	-1.6660296	0.084231584	-0.05839054	-1.0281992	0.070207567	0.12412706	-1.6328873	0.10056369	0.032779358	-1.023422	0.10990407	0.033486581	NaN	NaN	NaN	-1.0754868	0.026907087	0.069815807	-1.5084568	0.47230679	-0.12342568	-1.1339186	0.51789455	0.16480855	-1.5035206	0.47312274	0.0031400295	-1.1341498	0.4969985	0.037847244	-1.3814064	0.87321574	-0.16746822	-1.336589	0.86779753	0.20119879	-1.270864	0.94161038	-0.11840065	-1.2557369	0.9487255	0.120724	-1.4252652	1.0113975	0.014258186	-1.220172	1.3927563	-0.15552732	-1.2598303	1.4112809	0.16941201	-1.3003603	1.4564021	0.0029979795	-1.3051054	1.0282787	-0.22319653	-1.4441459	1.1009222	0.26852411	-1.0711063	0.89011999	-0.21672092	-1.3271111	0.85985343	0.31827672
3	0.008	-1.5158732	0.03666954	-0.030645572	-0.86209413	0.10639518	0.096748359	-1.6655182	0.085128977	-0.058599545	-1.0104527	0.071416042	0.12433342	-1.632364	0.10125687	0.032554828	-1.0066924	0.11109689	0.033623653	NaN	NaN	NaN	-1.0567149	0.026529519	0.070088144	-1.5045631	0.47203156	-0.12352284	-1.1273429	0.51614131	0.16508139	-1.5001738	0.47277005	0.0031036838	-1.1270923	0.49545449	0.037786757	-1.3754267	0.871948	-0.1671042	-1.3300317	0.86584884	0.20137441	-1.2645946	0.94012941	-0.11840603	-1.248697	0.94699627	0.12060238	-1.41882	1.0096222	0.014673704	-1.2137468	1.3912389	-0.15512893	-1.2538913	1.4095479	0.16977697	-1.293817	1.4548855	0.0041533235	-1.2976305	1.0264376	-0.22306011	-1.4351846	1.0993795	0.27109044	-1.0630979	0.88926122	-0.21617913	-1.3205736	0.85783292	0.31883075
4	0.012	-1.5158115	0.036631825	-0.030699552	-0.8457678	0.11061381	0.097218162	-1.6649692	0.086069899	-0.058876317	-0.99235377	0.073090979	0.12485282	-1.6318498	0.10198401	0.032302421	-0.9903538	0.11240202	0.033721733	NaN	NaN	NaN	-1.0385345	0.026518084	0.070308678	-1.5003934	0.47174706	-0.12364918	-1.1206939	0.51438154	0.16530568	-1.4965528	0.47243633	0.0030537805	-1.1200297	0.49390502	0.0377578	-1.3693565	0.87064289	-0.16675892	-1.3232738	0.86392648	0.20155698	-1.258257	0.93867625	-0.1184318	-1.2416747	0.94527731	0.12047041	-1.4123244	1.0077992	0.015133009	-1.2072789	1.3897309	-0.15471752	-1.2478466	1.4078329	0.17014399	-1.2870642	1.4534075	0.0057422066	-1.2901394	1.02463	-0.22282027	-1.4272147	1.0973864	0.27252544	-1.0551441	0.88837605	-0.21563349	-1.3140147	0.85580895	0.3193728
5	0.016	-1.5157354	0.036597282	-0.030762239	-0.83007035	0.11488054	0.097692484	-1.6643716	0.087085059	-0.059227915	-0.97430969	0.075091181	0.12553352	-1.6313025	0.10277529	0.032010945	-0.97447885	0.11381764	0.033762763	NaN	NaN	NaN	-1.0210614	0.026852036	0.070415068	-1.4959773	0.47143925	-0.12378331	-1.1138149	0.51271199	0.16545576	-1.4926496	0.4721135	0.0029835845	-1.112912	0.49235889	0.037764324	-1.3631798	0.86931578	-0.16642588	-1.3163151	0.86202639	0.20173671	-1.2518499	0.93726309	-0.11847747	-1.2349251	0.94360542	0.12050918	-1.4057646	1.0059619	0.015620835	-1.200746	1.3882426	-0.15429899	-1.2416932	1.4061378	0.17051444	-1.2803291	1.4519262	0.0071649191	-1.2826759	1.0228608	-0.2225935	-1.4201864	1.095094	0.27286891	-1.047261	0.88745814	-0.21508282	-1.3074049	0.85379561	0.31990173
6	0.02	-1.5156285	0.036566164	-0.030845768	-0.81500944	0.11907505	0.098077485	-1.6637157	0.08818447	-0.059634463	-0.95710962	0.077053956	0.12604894	-1.6306639	0.10364378	0.03167677	-0.95916161	0.11529858	0.033719323	NaN	NaN	NaN	-1.0043	0.027393786	0.070403926	-1.4914396	0.47110587	-0.12389392	-1.1066383	0.51117929	0.16556215	-1.4884187	0.47179285	0.0028838465	-1.1057383	0.49083016	0.037790518	-1.3568898	0.86797877	-0.16608788	-1.3091785	0.86014061	0.20190324	-1.2453685	0.93589267	-0.11853615	-1.2285189	0.94199493	0.12079277	-1.3991588	1.0041206	0.016118642	-1.1941217	1.3867837	-0.15386601	-1.2354384	1.4044662	0.17089389	-1.2737568	1.4504217	0.0080445887	-1.2753034	1.0211223	-0.22257301	-1.4134979	1.0927938	0.27276109	-1.0394551	0.88650347	-0.21453302	-1.3007202	0.85179787	0.32040751
7	0.024	-1.5154736	0.036537988	-0.030960891	-0.80057428	0.12306699	0.098340506	-1.6630008	0.089370028	-0.060070084	-0.94125516	0.078715042	0.12615646	-1.629912	0.10458389	0.031303146	-0.94452289	0.11677993	0.033564961	NaN	NaN	NaN	-0.98823693	0.027980361	0.070270899	-1.486892	0.47075074	-0.12396683	-1.0991844	0.50976429	0.16569882	-1.4838825	0.47145806	0.0027579286	-1.0985575	0.4893313	0.037810442	-1.3504899	0.86663239	-0.16572987	-1.3018853	0.85826529	0.20205546	-1.2388042	0.93456029	-0.11859963	-1.2221524	0.94042985	0.12115572	-1.3925217	1.0022754	0.016608143	-1.1874141	1.3853598	-0.15341271	-1.2290971	1.402818	0.17128655	-1.2673049	1.4489091	0.0084947348	-1.2680704	1.0194003	-0.22290914	-1.4067295	1.090614	0.27265939	-1.0317321	0.88550958	-0.21399357	-1.2939563	0.84981275	0.32088132
8	0.028	-1.5152722	0.03651146	-0.031105558	-0.78677279	0.12676664	0.09846595	-1.6622267	0.090636801	-0.060526528	-0.92667601	0.080065239	0.12581183	-1.6290701	0.10558769	0.030892484	-0.93059678	0.11821588	0.033289694	NaN	NaN	NaN	-0.97288457	0.028509811	0.069973477	-1.4823046	0.47038115	-0.12402162	-1.0915063	0.50842624	0.16592587	-1.4791327	0.47108977	0.0026186167	-1.0913894	0.48788265	0.037815522	-1.3439905	0.86529387	-0.1653482	-1.2944408	0.8564033	0.20220746	-1.2321542	0.93325469	-0.11866459	-1.2155341	0.93889248	0.1214163	-1.385842	1.000442	0.017074511	-1.1806726	1.38397	-0.15294907	-1.2226759	1.4011885	0.17168809	-1.2608699	1.4474044	0.0087943903	-1.2609574	1.0177095	-0.22350837	-1.3998035	1.0885387	0.27266054	-1.0241087	0.88447997	-0.21346799	-1.2871178	0.84784374	0.32132509
9	0.032	-1.5150725	0.036488159	-0.031247559	-0.77363682	0.13013514	0.098443246	-1.6613847	0.091976579	-0.061018151	-0.91307745	0.081199579	0.12508069	-1.6281583	0.10665344	0.030435515	-0.91731176	0.11958728	0.032902007	NaN	NaN	NaN	-0.95825037	0.028985756	0.069438111	-1.477538	0.47000653	-0.12408643	-1.0836744	0.50714351	0.16626724	-1.4742192	0.47067962	0.0024701129	-1.0841672	0.48652456	0.037830303	-1.3373969	0.86398742	-0.16494955	-1.2868485	0.85456135	0.20237887	-1.2254127	0.93196548	-0.1187345	-1.2086637	0.93738031	0.12155988	-1.3791011	0.99864267	0.017517064	-1.173933	1.38261	-0.15248318	-1.2161723	1.3995766	0.17209632	-1.2543906	1.4459109	0.009115818	-1.2538727	1.0161106	-0.22402006	-1.3927612	1.0865345	0.27273968	-1.0166107	0.88342605	-0.21295037	-1.2802144	0.845901	0.32174393
10	0.036	-1.5149491	0.036474353	-0.031335357	-0.76120777	0.13314714	0.098302889	-1.660464	0.093391232	-0.061563094	-0.90024868	0.08213819	0.12409314	-1.6271777	0.10777977	0.029919626	-0.90459824	0.12087273	0.03242776	NaN	NaN	NaN	-0.94429142	0.02950685	0.068573424	-1.4724993	0.46962266	-0.12415795	-1.0757648	0.50592267	0.1667178	-1.4691	0.4702392	0.002302876	-1.0767843	0.48530521	0.037886325	-1.3307047	0.86271343	-0.1645447	-1.2791207	0.85275344	0.20258217	-1.2185671	0.93068832	-0.11880964	-1.2016505	0.93590371	0.12166037	-1.3722864	0.99689423	0.017948238	-1.1671908	1.3812792	-0.15200814	-1.2095896	1.3979883	0.17251389	-1.2478539	1.4444358	0.0095085138	-1.246728	1.014663	-0.22411833	-1.3856424	1.0845832	0.27287274	-1.0092531	0.88236052	-0.21243515	-1.2732653	0.84399082	0.32214144
11	0.04	-1.5149076	0.036474387	-0.031363257	-0.74952577	0.13575851	0.09811804	-1.6594617	0.094884039	-0.062166062	-0.88811113	0.082808877	0.12302191	-1.626136	0.1089667	0.029347096	-0.89246581	0.12202793	0.03190096	NaN	NaN	NaN	-0.93094613	0.030171583	0.067332866	-1.4671978	0.46920732	-0.12421537	-1.0678262	0.5047779	0.16724433	-1.4637419	0.46977629	0.0021155883	-1.0691635	0.48426288	0.037984503	-1.3239044	0.86145611	-0.1641377	-1.2712807	0.8509977	0.20281901	-1.211609	0.92942028	-0.11887243	-1.1945477	0.93447878	0.12177639	-1.3653889	0.99520623	0.018379219	-1.1604293	1.3799839	-0.15151464	-1.2029428	1.3964325	0.17293846	-1.241271	1.4429938	0.0099617404	-1.2395172	1.013367	-0.22377673	-1.3784758	1.0826748	0.2730262	-1.0020074	0.88128971	-0.21191766	-1.2662845	0.84211455	0.32252261
12	0.044	-1.5148529	0.036484693	-0.03139581	-0.7386182	0.13790116	0.097953978	-1.6583784	0.096451691	-0.062828111	-0.8767033	0.083143924	0.12199298	-1.6250401	0.11022077	0.02872821	-0.88101733	0.12298439	0.031334046	NaN	NaN	NaN	-0.91827625	0.030907407	0.065806261	-1.4616834	0.46874632	-0.1242665	-1.0598456	0.50371536	0.16778382	-1.4582313	0.46926148	0.0019372472	-1.0612618	0.48342208	0.038091569	-1.3169878	0.86020427	-0.16372144	-1.2633727	0.84930525	0.2030875	-1.2045433	0.92815886	-0.11888996	-1.1873582	0.93311693	0.12192994	-1.3584054	0.99357185	0.018815367	-1.1536443	1.378733	-0.15100092	-1.1962424	1.3949187	0.17337057	-1.234667	1.4415869	0.010430299	-1.2323313	1.0121631	-0.22330908	-1.3713027	1.0808066	0.2731089	-0.99479686	0.88021457	-0.21138185	-1.2592712	0.8402756	0.32288961
